{"accessors": {"accessor_buffer_Cylinder_0": {"bufferView": "bufferView_buffer_Cylinder_0", "byteOffset": 0, "byteStride": 24, "componentType": 5126, "count": 84, "max": [0.866025447845459, 1.0, 1.990747332572937], "min": [-0.866025447845459, -1.0, -1.0], "type": "VEC3"}, "accessor_buffer_Cylinder_1": {"bufferView": "bufferView_buffer_Cylinder_0", "byteOffset": 12, "byteStride": 24, "componentType": 5126, "count": 84, "max": [1.0, 0.866025447845459, 1.0], "min": [-1.0, -0.8660255074501038, -1.0], "type": "VEC3"}, "accessor_buffer_Cylinder_2": {"bufferView": "bufferView_buffer_Cylinder_1", "byteOffset": 0, "byteStride": 2, "componentType": 5123, "count": 72, "max": [82], "min": [2], "type": "SCALAR"}, "accessor_buffer_Cylinder_3": {"bufferView": "bufferView_buffer_Cylinder_2", "byteOffset": 0, "byteStride": 2, "componentType": 5123, "count": 48, "max": [83], "min": [1], "type": "SCALAR"}, "accessor_buffer_Cylinder_4": {"bufferView": "bufferView_buffer_Cylinder_3", "byteOffset": 0, "byteStride": 2, "componentType": 5123, "count": 12, "max": [80], "min": [0], "type": "SCALAR"}}, "asset": {"profile": {"api": "WebGL", "version": "1.0.3"}, "version": "1.0"}, "bufferViews": {"bufferView_buffer_Cylinder_0": {"buffer": "buffer_Cylinder", "byteLength": 2016, "byteOffset": 0, "target": 34962}, "bufferView_buffer_Cylinder_1": {"buffer": "buffer_Cylinder", "byteLength": 144, "byteOffset": 2016, "target": 34963}, "bufferView_buffer_Cylinder_2": {"buffer": "buffer_Cylinder", "byteLength": 96, "byteOffset": 2160, "target": 34963}, "bufferView_buffer_Cylinder_3": {"buffer": "buffer_Cylinder", "byteLength": 24, "byteOffset": 2256, "target": 34963}}, "buffers": {"buffer_Cylinder": {"byteLength": 2280, "type": "arraybuffer", "uri": "data:text/plain;base64,"}}, "extensions": {"KHR_materials_common": {"lights": {}}}, "extensionsUsed": ["KHR_materials_common"], "materials": {"material_Material.002": {"extensions": {"KHR_materials_common": {"technique": "CONSTANT", "values": {"ambient": [1.0, 1.0, 1.0, 1.0], "diffuse": [0.3508325219154358, 0.3508325219154358, 0.3508325219154358, 1.0], "doubleSided": false, "emission": [0.3508325219154358, 0.3508325219154358, 0.3508325219154358, 1.0], "shininess": 50, "specular": [0.5, 0.5, 0.5, 1.0], "transparency": 1.0, "transparent": false}}}, "name": "Material.002"}, "material_Material.003": {"extensions": {"KHR_materials_common": {"technique": "CONSTANT", "values": {"ambient": [1.0, 1.0, 1.0, 1.0], "diffuse": [0.20783667266368866, 0.03978375717997551, 0.0019486095989122987, 1.0], "doubleSided": false, "emission": [0.20783667266368866, 0.03978375717997551, 0.0019486095989122987, 1.0], "shininess": 50, "specular": [0.5, 0.5, 0.5, 1.0], "transparency": 1.0, "transparent": false}}}, "name": "Material.003"}, "material_Material.004": {"extensions": {"KHR_materials_common": {"technique": "CONSTANT", "values": {"ambient": [1.0, 1.0, 1.0, 1.0], "diffuse": [0.0, 0.0, 0.0, 1.0], "doubleSided": false, "emission": [0.0, 0.0, 0.0, 1.0], "shininess": 50, "specular": [0.5, 0.5, 0.5, 1.0], "transparency": 1.0, "transparent": false}}}, "name": "Material.004"}}, "meshes": {"mesh_Cylinder": {"name": "Cylinder", "primitives": [{"attributes": {"NORMAL": "accessor_buffer_Cylinder_1", "POSITION": "accessor_buffer_Cylinder_0"}, "indices": "accessor_buffer_Cylinder_2", "material": "material_Material.003", "mode": 4}, {"attributes": {"NORMAL": "accessor_buffer_Cylinder_1", "POSITION": "accessor_buffer_Cylinder_0"}, "indices": "accessor_buffer_Cylinder_3", "material": "material_Material.004", "mode": 4}, {"attributes": {"NORMAL": "accessor_buffer_Cylinder_1", "POSITION": "accessor_buffer_Cylinder_0"}, "indices": "accessor_buffer_Cylinder_4", "material": "material_Material.002", "mode": 4}]}}, "nodes": {"node_Cylinder": {"children": [], "matrix": [0.800000011920929, 0.0, 0.0, 0.0, 0.0, 0.800000011920929, 0.0, 0.0, 0.0, 0.0, 0.800000011920929, 0.0, 0.0, 0.0, 0.800000011920929, 1.0], "meshes": ["mesh_Cylinder"], "name": "Cylinder"}, "node_scene_Scene_root": {"children": ["node_Cylinder"], "matrix": [-1.0, 0.0, 0.0, 0.0, 0.0, 0.0, 1.0, 0.0, 0.0, 1.0, 0.0, 0.0, 0.0, 0.0, 0.0, 1.0], "name": "node_scene_Scene_root"}}, "samplers": {"sampler_default": {}}, "scene": "scene_Scene", "scenes": {"scene_Scene": {"extras": {"active_camera": "camera_Camera", "background_color": [0.05087608844041824, 0.05087608844041824, 0.05087608844041824], "frames_per_second": 24}, "name": "Scene", "nodes": ["node_scene_Scene_root"]}}}