{"accessors": {"accessor_buffer_Cube_0": {"bufferView": "bufferView_buffer_Cube_0", "byteOffset": 0, "byteStride": 32, "componentType": 5126, "count": 128, "max": [1.2696301937103271, 0.7617778182029724, 6.862483978271484], "min": [-1.2696300745010376, -0.7617782354354858, 0.6026208400726318], "type": "VEC3"}, "accessor_buffer_Cube_1": {"bufferView": "bufferView_buffer_Cube_0", "byteOffset": 12, "byteStride": 32, "componentType": 5126, "count": 128, "max": [1.0, 1.0, 1.0], "min": [-1.0, -1.0, -1.0], "type": "VEC3"}, "accessor_buffer_Cube_2": {"bufferView": "bufferView_buffer_Cube_0", "byteOffset": 24, "byteStride": 32, "componentType": 5126, "count": 128, "max": [0.823452889919281, 0.9565634727478027], "min": [0.26637107133865356, 0.025672316551208496], "type": "VEC2"}, "accessor_buffer_Cube_3": {"bufferView": "bufferView_buffer_Cube_1", "byteOffset": 0, "byteStride": 2, "componentType": 5123, "count": 60, "max": [121], "min": [1], "type": "SCALAR"}, "accessor_buffer_Cube_4": {"bufferView": "bufferView_buffer_Cube_2", "byteOffset": 0, "byteStride": 2, "componentType": 5123, "count": 132, "max": [127], "min": [0], "type": "SCALAR"}}, "asset": {"profile": {"api": "WebGL", "version": "1.0.3"}, "version": "1.0"}, "bufferViews": {"bufferView_buffer_Cube_0": {"buffer": "buffer_combined", "byteLength": 4096, "byteOffset": 0, "target": 34962}, "bufferView_buffer_Cube_1": {"buffer": "buffer_combined", "byteLength": 120, "byteOffset": 4096, "target": 34963}, "bufferView_buffer_Cube_2": {"buffer": "buffer_combined", "byteLength": 264, "byteOffset": 4216, "target": 34963}}, "buffers": {"buffer_combined": {"byteLength": 4480, "type": "arraybuffer", "uri": "buffer_combined.bin"}}, "extensions": {"KHR_materials_common": {"lights": {}}}, "extensionsUsed": ["KHR_materials_common"], "materials": {"material_Material": {"extensions": {"KHR_materials_common": {"technique": "CONSTANT", "values": {"ambient": [1.0, 1.0, 1.0, 1.0], "diffuse": [0.0024282161612063646, 0.40724021196365356, 0.0, 1.0], "doubleSided": false, "emission": [0.0024282161612063646, 0.40724021196365356, 0.0, 1.0], "shininess": 50, "specular": [0.5, 0.5, 0.5, 1.0], "transparency": 1.0, "transparent": false}}}, "name": "Material"}, "material_Material.001": {"extensions": {"KHR_materials_common": {"technique": "PHONG", "values": {"ambient": [1.0, 1.0, 1.0, 1.0], "diffuse": [0.0035131536424160004, 0.08954595774412155, 0.0024282156955450773, 1.0], "doubleSided": false, "emission": [0.0, 0.0, 0.0, 1.0], "shininess": 50, "specular": [0.5, 0.5, 0.5, 1.0], "transparency": 1.0, "transparent": false}}}, "name": "Material.001"}}, "meshes": {"mesh_Cube": {"name": "Cube", "primitives": [{"attributes": {"NORMAL": "accessor_buffer_Cube_1", "POSITION": "accessor_buffer_Cube_0", "TEXCOORD_0": "accessor_buffer_Cube_2"}, "indices": "accessor_buffer_Cube_3", "material": "material_Material", "mode": 4}, {"attributes": {"NORMAL": "accessor_buffer_Cube_1", "POSITION": "accessor_buffer_Cube_0", "TEXCOORD_0": "accessor_buffer_Cube_2"}, "indices": "accessor_buffer_Cube_4", "material": "material_Material.001", "mode": 4}]}}, "nodes": {"node_Cube": {"children": [], "matrix": [1.0, 0.0, 0.0, 0.0, 0.0, 1.0, 0.0, 0.0, 0.0, 0.0, 1.0, 0.0, 0.0, 0.0, 0.0, 1.0], "meshes": ["mesh_Cube"], "name": "Cube"}, "node_scene_Scene_root": {"children": ["node_Cube"], "matrix": [-1.0, 0.0, 0.0, 0.0, 0.0, 0.0, 1.0, 0.0, 0.0, 1.0, 0.0, 0.0, 0.0, 0.0, 0.0, 1.0], "name": "node_scene_Scene_root"}}, "samplers": {"sampler_default": {}}, "scene": "scene_Scene", "scenes": {"scene_Scene": {"extras": {"active_camera": "camera_Camera", "background_color": [0.05087608844041824, 0.05087608844041824, 0.05087608844041824], "frames_per_second": 24}, "name": "Scene", "nodes": ["node_scene_Scene_root"]}}}